<svg xmlns="http://www.w3.org/2000/svg" height="48" viewBox="0 -960 960 960" width="48" fill="#fff"><path d="m776-585-23.333-23.333 24.103-24.436q7.692-7.693 7.692-17.308t-7.692-17.308L667.385-776.77q-7.693-7.692-17.308-7.692t-17.308 7.692l-24.436 24.103L584-777l22.308-23.308q17.615-17.615 43.154-17.115 25.538.5 43.154 18.115l106.692 106.692q17.615 17.616 17.615 42.654 0 25.039-17.615 42.654L776-585ZM353.692-161.692q-17.615 17.615-42.654 17.615-25.038 0-42.654-17.615l-107.82-107.821q-16.949-17.2-16.949-41.651 0-24.451 16.949-41.4L184-376l24.333 23.667-23.667 24.102q-7.692 7.693-7.692 17.308t7.692 17.308l108.949 108.949q7.693 7.692 17.308 7.692t17.308-7.692l24.102-23.667L376-184l-22.308 22.308ZM743-425.436l53.872-53.872Q804.564-487 804.564-497t-7.692-17.692l-282.18-282.18Q507-804.564 497-804.564t-17.692 7.692L425.436-743q-7.693 7.692-7.693 17.308 0 9.615 7.693 17.307l282.949 282.949q7.692 7.693 17.307 7.693 9.616 0 17.308-7.693ZM480.692-163.128l54.539-54.103q7.692-7.692 7.692-17.307 0-9.616-7.692-17.308L251.846-535.231q-7.692-7.692-17.308-7.692-9.615 0-17.307 7.692l-54.103 54.539Q155.436-473 155.436-463t7.692 17.692l282.18 282.18Q453-155.436 463-155.436t17.692-7.692Zm-23.435-215.128L581.974-503.41l-78.564-78.564-125.154 124.717 79.001 79.001Zm46.845 239.231q-16.904 16.948-41.08 16.948t-40.612-16.948L139.025-422.41q-16.948-16.392-16.948-40.568t16.948-41.124l53.872-54.796q17.201-16.948 41.652-16.948t41.4 16.948l77.974 77.975 125.384-125.385-77.974-78.41q-16.949-16.392-16.949-40.952 0-24.561 16.949-41.51l54.641-54.795q17.201-16.948 41.652-16.948t41.4 16.948l282.949 282.949q16.948 17.201 16.948 41.652t-16.948 41.4l-54.795 54.641q-16.905 16.949-41.466 16.949-24.56 0-40.996-16.949l-78.41-77.974-125.385 125.384 77.975 77.974q16.948 17.201 16.948 41.652t-16.948 41.4l-54.796 53.872Z"/></svg>