<svg xmlns="http://www.w3.org/2000/svg" height="48" viewBox="0 -960 960 960" width="48" fill="#fff"><path d="M193.718-456.923H320q4.641 0 8.615 2.32 3.975 2.321 6 6.962L400-318.256l145.385-289.385q4.641-9.513 15-9.513t15 9.513l75.359 150.718h115.538q-6.692-113.744-89.231-191.564Q594.513-726.308 480-726.308q-114.513 0-197.051 77.821-82.539 77.82-89.231 191.564ZM480-154q114.513 0 196.974-78 82.462-78 88.642-191.077H640q-4.641 0-8.615-2.32-3.975-2.321-6-6.962L560-561.744 414.615-271.59q-4.641 9.513-15 9.385-10.359-.128-15-10.154l-75.359-150.718H194.384Q200.564-310 283.025-232 365.487-154 480-154Zm0 33.846q-66.308 0-124.5-25.295-58.192-25.294-101.808-68.653-43.615-43.359-68.654-101.808Q160-374.359 160-440.154h33.846q0 118.923 83.615 202.539Q361.077-154 480-154q118.923 0 202.539-83.615 83.615-83.616 83.615-202.539H800q0 65.795-25.038 124.244-25.039 58.449-68.654 101.808-43.616 43.359-101.808 68.653-58.192 25.295-124.5 25.295Zm-320-320q0-66.308 25.038-124.5 25.039-58.192 68.654-101.808 43.616-43.615 101.808-68.654 58.192-25.038 124.5-25.038 59.949 0 114.821 21.41 54.871 21.41 99.128 60.231l41.897-42.41 24.103 24.102-42.41 42.411q37.692 41.794 60.077 96.102Q800-504 800-440.154h-33.846q0-118.923-83.615-202.539Q598.923-726.308 480-726.308q-118.923 0-202.539 83.615-83.615 83.616-83.615 202.539H160Zm215.385-426V-900h209.23v33.846h-209.23ZM480-154q-118.923 0-202.539-83.615-83.615-83.616-83.615-202.539 0-118.923 83.615-202.539Q361.077-726.308 480-726.308q118.923 0 202.539 83.615 83.615 83.616 83.615 202.539 0 118.923-83.615 202.539Q598.923-154 480-154Zm0-286Z"/></svg>